<?xml version="1.0" encoding="UTF-8" standalone="no"?>
<!-- created with bpmn-js / http://bpmn.io -->

<svg
   xmlns:dc="http://purl.org/dc/elements/1.1/"
   xmlns:cc="http://creativecommons.org/ns#"
   xmlns:rdf="http://www.w3.org/1999/02/22-rdf-syntax-ns#"
   xmlns:svg="http://www.w3.org/2000/svg"
   xmlns="http://www.w3.org/2000/svg"
   xmlns:sodipodi="http://sodipodi.sourceforge.net/DTD/sodipodi-0.dtd"
   xmlns:inkscape="http://www.inkscape.org/namespaces/inkscape"
   width="1494"
   height="1683"
   viewBox="275 -8 1494 1683"
   version="1.1"
   id="svg9721"
   sodipodi:docname="bpmn-sample.svg"
   inkscape:version="0.92.2 (5c3e80d, 2017-08-06)">
  <metadata
     id="metadata9725">
    <rdf:RDF>
      <cc:Work
         rdf:about="">
        <dc:format>image/svg+xml</dc:format>
        <dc:type
           rdf:resource="http://purl.org/dc/dcmitype/StillImage" />
      </cc:Work>
    </rdf:RDF>
  </metadata>
  <sodipodi:namedview
     pagecolor="#ffffff"
     bordercolor="#666666"
     borderopacity="1"
     objecttolerance="10"
     gridtolerance="10"
     guidetolerance="10"
     inkscape:pageopacity="0"
     inkscape:pageshadow="2"
     inkscape:window-width="1920"
     inkscape:window-height="1017"
     id="namedview9723"
     showgrid="false"
     inkscape:zoom="2.0154486"
     inkscape:cx="323.86856"
     inkscape:cy="1279.2572"
     inkscape:window-x="1912"
     inkscape:window-y="-8"
     inkscape:window-maximized="1"
     inkscape:current-layer="svg9721" />
  <defs
     id="defs5283">
    <marker
       id="association-end-white-black-8cij8wy4s7ekhu1tz3xn1lgjo"
       viewBox="0 0 20 20"
       refX="12"
       refY="10"
       markerWidth="10"
       markerHeight="10"
       orient="auto">
      <path
         d="M 1 5 L 11 10 L 1 15"
         style="fill: none; stroke-width: 1.5px; stroke-linecap: round; stroke-dasharray: 10000, 1; stroke: black;"
         id="path5271" />
    </marker>
    <marker
       id="sequenceflow-end-white-black-8cij8wy4s7ekhu1tz3xn1lgjo"
       viewBox="0 0 20 20"
       refX="11"
       refY="10"
       markerWidth="10"
       markerHeight="10"
       orient="auto">
      <path
         d="M 1 5 L 11 10 L 1 15 Z"
         style="fill: black; stroke-width: 1px; stroke-linecap: round; stroke-dasharray: 10000, 1; stroke: black;"
         id="path5274" />
    </marker>
    <marker
       id="messageflow-end-white-black-8cij8wy4s7ekhu1tz3xn1lgjo"
       viewBox="0 0 20 20"
       refX="8.5"
       refY="5"
       markerWidth="20"
       markerHeight="20"
       orient="auto">
      <path
         d="m 1 5 l 0 -3 l 7 3 l -7 3 z"
         style="fill: white; stroke-width: 1px; stroke-linecap: butt; stroke-dasharray: 10000, 1; stroke: black;"
         id="path5277" />
    </marker>
    <marker
       id="messageflow-start-white-black-8cij8wy4s7ekhu1tz3xn1lgjo"
       viewBox="0 0 20 20"
       refX="6"
       refY="6"
       markerWidth="20"
       markerHeight="20"
       orient="auto">
      <circle
         cx="6"
         cy="6"
         r="3.5"
         style="fill: white; stroke-width: 1px; stroke-linecap: round; stroke-dasharray: 10000, 1; stroke: black;"
         id="circle5280" />
    </marker>
  </defs>

      <g
         class="djs-group"
         id="g5583">
        <g
           class="djs-element djs-shape"
           data-element-id="Task_0lbn5j3"
           style="display: block;"
           transform="translate(568 152)"
           id="g5581">
          <g
             class="djs-visual"
             id="g5575">
            <rect
               x="0"
               y="0"
               width="100"
               height="80"
               rx="10"
               ry="10"
               style="stroke: black; stroke-width: 2px; fill: white; fill-opacity: 0.95;"
               id="rect5561" />
            <text
               class="djs-label"
               style="font-family: Arial, sans-serif; font-size: 12px; fill: black;"
               id="text5567">
              <desc
                 id="desc14816">DWIP will change the status of this request to &quot;Submitted&quot;</desc>
              <title
                 id="title14814">40. DWIP sets status: Submitted</title>
              <tspan
                 x="31.328125"
                 y="36.5"
                 id="tspan5563">Status:</tspan>
              <tspan
                 x="24.484375"
                 y="50.5"
                 id="tspan5565">Subnitted</tspan>
            </text>
            <path
               d="m 12,18 v -1.71335 c 0.352326,-0.0705 0.703932,-0.17838 1.047628,-0.32133 0.344416,-0.14465 0.665822,-0.32133 0.966377,-0.52145 l 1.19431,1.18005 1.567487,-1.57688 -1.195028,-1.18014 c 0.403376,-0.61394 0.683079,-1.29908 0.825447,-2.01824 l 1.622133,-0.01 v -2.2196 l -1.636514,0.01 c -0.07333,-0.35153 -0.178319,-0.70024 -0.323564,-1.04372 -0.145244,-0.34406 -0.321407,-0.6644 -0.522735,-0.96217 l 1.131035,-1.13631 -1.583305,-1.56293 -1.129598,1.13589 c -0.614052,-0.40108 -1.302883,-0.68093 -2.022633,-0.82247 l 0.0093,-1.61852 h -2.241173 l 0.0042,1.63124 c -0.353763,0.0736 -0.705369,0.17977 -1.049785,0.32371 -0.344415,0.14437 -0.665102,0.32092 -0.9635006,0.52046 l -1.1698628,-1.15823 -1.5667691,1.5792 1.1684265,1.15669 c -0.4026573,0.61283 -0.68308,1.29797 -0.8247287,2.01713 l -1.6588041,0.003 v 2.22174 l 1.6724648,-0.006 c 0.073327,0.35077 0.1797598,0.70243 0.3242851,1.04472 0.1452428,0.34448 0.3214064,0.6644 0.5227339,0.96066 l -1.1993431,1.19723 1.5840256,1.56011 1.1964668,-1.19348 c 0.6140517,0.40346 1.3028827,0.68232 2.0233517,0.82331 l 7.19e-4,1.69892 h 2.226848 z m 0.221462,-3.9957 c -1.788948,0.7502 -3.8576,-0.0928 -4.6097055,-1.87438 -0.7521065,-1.78321 0.090598,-3.84627 1.8802645,-4.59604 1.78823,-0.74936 3.856881,0.0929 4.608987,1.87437 0.752106,1.78165 -0.0906,3.84612 -1.879546,4.59605 z"
               style="fill: white; stroke-width: 1px; stroke: black;"
               id="path5569" />
            <path
               d="m 17.2,18 c -1.788948,0.7502 -3.8576,-0.0928 -4.6097055,-1.87438 -0.7521065,-1.78321 0.090598,-3.84627 1.8802645,-4.59604 1.78823,-0.74936 3.856881,0.0929 4.608987,1.87437 0.752106,1.78165 -0.0906,3.84612 -1.879546,4.59605 z"
               style="fill: white; stroke-width: 0px; stroke: black;"
               id="path5571" />
            <path
               d="m 17,22 v -1.71335 c 0.352326,-0.0705 0.703932,-0.17838 1.047628,-0.32133 0.344416,-0.14465 0.665822,-0.32133 0.966377,-0.52145 l 1.19431,1.18005 1.567487,-1.57688 -1.195028,-1.18014 c 0.403376,-0.61394 0.683079,-1.29908 0.825447,-2.01824 l 1.622133,-0.01 v -2.2196 l -1.636514,0.01 c -0.07333,-0.35153 -0.178319,-0.70024 -0.323564,-1.04372 -0.145244,-0.34406 -0.321407,-0.6644 -0.522735,-0.96217 l 1.131035,-1.13631 -1.583305,-1.56293 -1.129598,1.13589 c -0.614052,-0.40108 -1.302883,-0.68093 -2.022633,-0.82247 l 0.0093,-1.61852 h -2.241173 l 0.0042,1.63124 c -0.353763,0.0736 -0.705369,0.17977 -1.049785,0.32371 -0.344415,0.14437 -0.665102,0.32092 -0.9635006,0.52046 l -1.1698628,-1.15823 -1.5667691,1.5792 1.1684265,1.15669 c -0.4026573,0.61283 -0.68308,1.29797 -0.8247287,2.01713 l -1.6588041,0.003 v 2.22174 l 1.6724648,-0.006 c 0.073327,0.35077 0.1797598,0.70243 0.3242851,1.04472 0.1452428,0.34448 0.3214064,0.6644 0.5227339,0.96066 l -1.1993431,1.19723 1.5840256,1.56011 1.1964668,-1.19348 c 0.6140517,0.40346 1.3028827,0.68232 2.0233517,0.82331 l 7.19e-4,1.69892 h 2.226848 z m 0.221462,-3.9957 c -1.788948,0.7502 -3.8576,-0.0928 -4.6097055,-1.87438 -0.7521065,-1.78321 0.090598,-3.84627 1.8802645,-4.59604 1.78823,-0.74936 3.856881,0.0929 4.608987,1.87437 0.752106,1.78165 -0.0906,3.84612 -1.879546,4.59605 z"
               style="fill: white; stroke-width: 1px; stroke: black;"
               id="path5573" />
          </g>
          <rect
             x="0"
             y="0"
             width="100"
             height="80"
             class="djs-hit"
             style="fill: none; stroke-opacity: 0; stroke: white; stroke-width: 15px;"
             id="rect5577" />
          <rect
             x="-6"
             y="-6"
             width="112"
             height="92"
             class="djs-outline"
             style="fill: none;"
             id="rect5579" />
        </g>
      </g>
      
 </svg>